<?xml version="1.0" standalone="no"?>
<!DOCTYPE svg PUBLIC "-//W3C//DTD SVG 20010904//EN"
 "http://www.w3.org/TR/2001/REC-SVG-20010904/DTD/svg10.dtd">
<svg version="1.0" xmlns="http://www.w3.org/2000/svg"
 width="1500.000000pt" height="1500.000000pt" viewBox="0 0 1500.000000 1500.000000"
 preserveAspectRatio="xMidYMid meet">
<metadata>
Created by potrace 1.14, written by Peter Selinger 2001-2017
</metadata>
<g transform="translate(0.000000,1500.000000) scale(0.100000,-0.100000)"
fill="#000000" stroke="none">
<path d="M7549 13856 c-2 -2 -40 -7 -84 -10 -44 -4 -96 -9 -114 -11 -19 -3
-69 -7 -111 -9 -64 -5 -112 -13 -215 -40 -92 -23 -242 -89 -311 -137 -44 -30
-47 -33 -105 -87 -20 -18 -49 -35 -64 -38 -16 -3 -32 -7 -37 -10 -5 -3 -18 -7
-31 -10 -12 -2 -71 -18 -132 -34 -60 -17 -117 -32 -125 -34 -151 -37 -389
-115 -535 -175 -54 -23 -105 -41 -112 -41 -7 0 -13 -4 -13 -10 0 -5 -6 -10
-14 -10 -8 0 -45 -14 -82 -30 -37 -17 -82 -37 -98 -45 -56 -24 -87 -26 -163
-9 -88 19 -217 15 -303 -11 -67 -20 -188 -80 -257 -126 -146 -98 -449 -386
-554 -524 -28 -37 -88 -90 -173 -154 -128 -95 -265 -206 -396 -319 -85 -74
-438 -427 -517 -517 -722 -823 -1189 -1774 -1398 -2845 -9 -43 -34 -193 -39
-235 -3 -22 -9 -57 -12 -77 -3 -20 -7 -52 -9 -70 -1 -18 -6 -55 -9 -83 -37
-286 -43 -908 -11 -1210 8 -75 26 -230 30 -255 2 -14 7 -45 10 -70 5 -41 16
-109 29 -185 3 -16 14 -75 26 -130 11 -55 22 -109 24 -120 23 -114 131 -499
161 -575 7 -19 19 -53 26 -75 12 -40 108 -292 134 -350 7 -16 27 -64 45 -105
34 -79 206 -428 220 -445 4 -5 25 -41 45 -80 88 -162 295 -478 433 -660 51
-67 194 -245 214 -267 51 -54 49 -50 34 -124 -20 -94 -15 -250 12 -327 22 -64
20 -84 -13 -137 -117 -187 -128 -392 -31 -603 14 -31 27 -67 30 -79 2 -13 10
-43 17 -68 7 -25 13 -47 14 -50 18 -70 110 -202 207 -298 78 -77 183 -162 199
-162 4 0 14 -6 21 -13 15 -15 112 -58 178 -80 77 -26 170 -39 284 -41 289 -6
512 81 720 282 79 76 97 82 134 46 52 -53 222 -141 314 -164 177 -45 321 -44
478 1 58 17 57 17 180 -21 96 -29 223 -66 260 -75 90 -21 142 -40 205 -75 41
-22 75 -37 75 -34 0 4 6 1 14 -5 8 -7 22 -14 32 -16 11 -2 35 -9 54 -15 77
-25 164 -29 435 -19 39 1 99 0 135 -4 285 -28 949 -30 1110 -3 14 3 60 7 103
11 43 4 88 8 100 10 12 2 58 9 102 15 44 6 96 14 115 17 19 2 80 13 135 23
160 31 185 36 213 44 9 3 28 7 42 10 216 40 684 191 973 315 65 28 123 51 127
51 5 0 14 -16 20 -35 13 -41 69 -125 114 -174 63 -67 200 -152 268 -165 13 -2
30 -7 38 -10 52 -19 262 -28 330 -13 166 36 323 145 420 289 14 21 28 38 33
38 4 0 7 5 7 10 0 6 5 16 11 23 5 7 38 53 73 102 34 50 116 166 182 259 65 92
172 243 236 335 65 91 122 171 128 178 5 7 10 16 10 22 0 5 3 11 8 13 4 2 25
30 47 63 22 33 43 65 47 70 5 6 53 70 109 143 164 217 205 328 196 529 l-5
111 81 109 c79 106 286 414 324 483 11 19 46 80 78 135 32 55 97 179 146 275
176 351 288 644 413 1070 21 74 84 336 92 385 3 22 8 43 10 46 2 4 6 24 9 45
3 22 10 62 15 89 5 28 12 66 14 85 3 19 7 44 10 55 2 11 7 49 11 85 4 36 8 72
10 80 3 15 13 107 21 190 30 326 26 868 -11 1185 -3 28 -8 73 -10 100 -3 28
-7 61 -10 75 -3 14 -7 43 -11 65 -5 40 -29 185 -40 240 -4 24 -23 113 -40 190
-2 11 -6 31 -9 45 -3 14 -19 77 -35 140 -17 63 -33 124 -35 136 -11 49 -136
419 -179 529 -49 123 -55 138 -100 238 -14 32 -26 60 -26 63 0 9 -148 305
-200 399 -205 376 -473 758 -773 1100 -63 72 -393 404 -482 486 -81 73 -233
199 -335 277 -52 40 -100 76 -107 82 -28 23 -222 158 -258 180 -22 13 -42 27
-45 30 -3 4 -57 38 -120 76 -150 90 -133 81 -254 147 -58 32 -106 62 -106 67
0 5 -5 21 -12 37 -6 15 -12 30 -13 33 -4 17 -60 116 -71 128 -8 7 -14 17 -14
21 0 17 -133 140 -204 189 -42 29 -76 50 -76 46 0 -4 -8 0 -17 8 -33 28 -285
125 -372 143 -9 2 -36 8 -61 14 -51 13 -76 19 -105 25 -11 2 -72 16 -135 31
-63 15 -124 28 -135 29 -11 1 -24 4 -30 8 -12 7 -179 2 -251 -7 -64 -9 -91 4
-189 93 -90 83 -242 164 -348 186 -7 2 -19 5 -27 8 -17 7 -148 32 -230 45 -36
5 -406 14 -411 9z"/>
</g>
</svg>
